FILE "First Kiss Monogatari (1998)(HuneX)(JP)[FXHNX801].img" BINARY
  TRACK 01 AUDIO
    INDEX 01 00:00:00
  TRACK 02 MODE1/2352
    PREGAP 00:03:00
    INDEX 01 00:15:06
  TRACK 03 AUDIO
    PREGAP 00:02:00
    INDEX 01 70:35:11
  TRACK 04 AUDIO
    INDEX 01 72:02:01
